#!OML:ASF E:\Steps\Project 1\Capture day 1\Session 2\Subject.ASF
:FULLY-SPECIFIED
:DEGREES
506
root 12.4106 17.1085 8.1298 -155.788 2.55686 176.751
lowerback -31.2133 -3.14987 -7.80201
upperback -0.624532 -0.59322 -0.16418
thorax 15.7599 -0.543549 3.87948
lowerneck -4.84204 -0.281317 0.754637
upperneck 6.29234 -0.449992 0.941439
head 2.84437 -0.151289 0.155368
rclavicle 2.78299e-015 2.127e-014
rhumerus -38.9499 -21.6592 -74.7829
rradius 31.6156
rwrist -1.29853
rhand -6.62537 -51.1239
rfingers 7.12502
rthumb 19.2311 279.807
lclavicle 2.78299e-015 2.127e-014
lhumerus -33.0443 8.27987 77.4768
lradius 16.5062
lwrist -9.37777
lhand -20.5919 -10.4073
lfingers 7.12502
lthumb 5.76837 19.4942
rfemur -21.4571 7.02387 18.5002
rtibia 7.70746
rfoot -19.4816 -2.04357
rtoes -18.973
lfemur -21.7681 -9.68004 -24.0221
ltibia 9.66927
lfoot -9.75942 -1.85367
ltoes -32.8051
507
root 12.4096 17.1065 8.12944 -155.749 2.57769 176.748
lowerback -31.102 -3.16338 -7.84383
upperback -0.743308 -0.60485 -0.124302
thorax 15.5715 -0.537337 3.94288
lowerneck -4.79337 -0.285954 0.594494
upperneck 6.26173 -0.452613 1.08346
head 2.82581 -0.15168 0.228657
rclavicle -1.28465e-014 -9.74045e-015
rhumerus -39.1575 -21.4993 -74.7139
rradius 31.5962
rwrist -1.30956
rhand -6.99315 -51.7409
rfingers 7.12502
rthumb 18.8774 279.155
lclavicle -1.28465e-014 -9.74045e-015
lhumerus -33.2034 8.18567 77.5502
lradius 16.5748
lwrist -9.20542
lhand -20.8352 -11.1009
lfingers 7.12502
lthumb 5.53342 18.8069
rfemur -21.5077 7.08281 18.4786
rtibia 7.71461
rfoot -19.4764 -2.08006
rtoes -19.2676
lfemur -21.8407 -9.56201 -24.0636
ltibia 9.74187
lfoot -9.6793 -1.85891
ltoes -33.0785
508
root 12.4093 17.106 8.13001 -155.71 2.58253 176.791
lowerback -31.1524 -3.1533 -7.80408
upperback -0.750263 -0.597401 -0.129906
thorax 15.5849 -0.529992 3.91809
lowerneck -4.84415 -0.294473 0.578654
upperneck 6.29168 -0.468946 1.17112
head 2.84598 -0.156399 0.258994
rclavicle 1.61761e-014 2.18663e-015
rhumerus -39.2042 -21.4296 -74.7939
rradius 31.5659
rwrist -1.25806
rhand -6.92839 -51.9232
rfingers 7.12502
rthumb 18.9397 278.979
lclavicle 1.61761e-014 2.18663e-015
lhumerus -33.1759 8.25805 77.4847
lradius 16.6078
lwrist -9.31967
lhand -20.9888 -11.5715
lfingers 7.12502
lthumb 5.3852 18.3401
rfemur -21.5522 7.19472 18.5031
rtibia 7.69887
rfoot -19.4891 -2.17972
rtoes -19.4078
lfemur -21.8727 -9.62335 -23.9923
ltibia 9.73414
lfoot -9.67143 -1.77565
ltoes -33.0902
509
root 12.4104 17.1075 8.13222 -155.703 2.5666 176.815
lowerback -31.1288 -3.15481 -7.83599
upperback -0.75001 -0.593388 -0.11735
thorax 15.5744 -0.531135 3.95095
lowerneck -4.90915 -0.308005 0.512066
upperneck 6.2954 -0.49105 1.29101
head 2.86035 -0.164532 0.308234
rclavicle -1.93815e-015 9.93923e-015
rhumerus -39.2225 -21.3821 -74.8317
rradius 31.5146
rwrist -1.21131
rhand -6.98965 -52.181
rfingers 7.12502
rthumb 18.8808 278.715
lclavicle -1.93815e-015 9.93923e-015
lhumerus -33.0995 8.42687 77.4218
lradius 16.6383
lwrist -9.46489
lhand -20.9422 -11.5364
lfingers 7.12502
lthumb 5.43013 18.374
rfemur -21.5615 7.14095 18.5348
rtibia 7.66646
rfoot -19.4603 -2.12873
rtoes -18.9155
lfemur -21.8359 -9.78274 -23.9078
ltibia 9.62067
lfoot -9.6375 -1.62597
ltoes -33.1334
510
root 12.4109 17.1115 8.13598 -155.77 2.50481 176.814
lowerback -30.8231 -3.17948 -7.94368
upperback -0.861983 -0.626471 -0.0612651
thorax 15.3105 -0.540732 4.06021
lowerneck -4.87401 -0.332499 0.427194
upperneck 6.33642 -0.520279 1.35554
head 2.8684 -0.177955 0.342691
rclavicle -2.48481e-015 -3.77691e-015
rhumerus -39.4496 -21.3635 -74.6816
rradius 31.4627
rwrist -1.07108
rhand -7.15801 -52.3802
rfingers 7.12502
rthumb 18.7188 278.5
lclavicle -2.48481e-015 -3.77691e-015
lhumerus -33.2126 8.14273 77.6199
lradius 16.7823
lwrist -9.15257
lhand -20.9833 -11.6812
lfingers 7.12502
lthumb 5.39049 18.2302
rfemur -21.6311 6.9758 18.5734
rtibia 7.92768
rfoot -19.5289 -2.00156
rtoes -18.603
lfemur -21.7597 -9.86069 -23.8757
ltibia 9.55021
lfoot -9.58122 -1.58019
ltoes -33.4116
511
root 12.4106 17.1129 8.13676 -155.838 2.44252 176.836
lowerback -30.7095 -3.17141 -7.94562
upperback -0.884236 -0.629236 -0.0569634
thorax 15.2336 -0.539374 4.06603
lowerneck -4.86353 -0.369163 0.454906
upperneck 6.40215 -0.572813 1.40145
head 2.88913 -0.200176 0.350788
rclavicle 8.27441e-015 3.598e-014
rhumerus -39.64 -21.569 -74.527
rradius 31.3753
rwrist -0.874155
rhand -7.10486 -52.2757
rfingers 7.12502
rthumb 18.77 278.61
lclavicle 8.27441e-015 3.598e-014
lhumerus -33.238 7.5966 77.9162
lradius 17.0758
lwrist -8.56085
lhand -20.9626 -11.2381
lfingers 7.12502
lthumb 5.41046 18.6728
rfemur -21.3457 7.08415 18.5943
rtibia 7.54748
rfoot -19.3069 -2.14902
rtoes -19.1531
lfemur -21.6942 -9.82387 -23.8604
ltibia 9.54125
lfoot -9.5477 -1.60019
ltoes -33.8106
512
root 12.4098 17.1111 8.13626 -155.821 2.39527 176.91
lowerback -30.7278 -3.13333 -7.80817
upperback -0.903604 -0.61771 -0.0914791
thorax 15.2167 -0.520731 3.95903
lowerneck -4.87054 -0.360244 0.439738
upperneck 6.49908 -0.568825 1.57663
head 2.9244 -0.189568 0.410423
rclavicle 2.23633e-016 -7.95139e-016
rhumerus -39.7721 -21.8532 -74.4255
rradius 31.2419
rwrist -0.7071
rhand -7.02478 -52.0248
rfingers 7.12502
rthumb 18.847 278.868
lclavicle 2.23633e-016 -7.95139e-016
lhumerus -33.2084 7.4475 77.9598
lradius 17.3177
lwrist -8.33829
lhand -20.5857 -10.3559
lfingers 7.12502
lthumb 5.77436 19.5454
rfemur -21.3034 7.05607 18.6932
rtibia 7.45492
rfoot -19.2731 -2.17283
rtoes -19.7322
lfemur -21.6951 -9.82247 -23.7655
ltibia 9.51978
lfoot -9.63814 -1.67581
ltoes -33.5979
513
root 12.408 17.1112 8.13693 -155.791 2.36519 177.03
lowerback -30.5953 -3.09186 -7.65952
upperback -1.02381 -0.624735 -0.0754059
thorax 15.017 -0.498904 3.8959
lowerneck -4.87327 -0.346326 0.384832
upperneck 6.62525 -0.550888 1.68085
head 2.96856 -0.175412 0.454827
rclavicle 9.93923e-017 3.04141e-014
rhumerus -39.9811 -22.0034 -74.2698
rradius 31.1184
rwrist -0.553298
rhand -6.88583 -51.776
rfingers 7.12502
rthumb 18.9806 279.13
lclavicle 9.93923e-017 3.04141e-014
lhumerus -33.2882 7.48904 77.9262
lradius 17.4545
lwrist -8.31255
lhand -20.2365 -10.2852
lfingers 7.12502
lthumb 6.11146 19.6067
rfemur -21.3596 7.13392 18.8217
rtibia 7.50347
rfoot -19.3326 -2.23289
rtoes -19.5446
lfemur -21.7092 -9.8848 -23.5952
ltibia 9.47574
lfoot -9.73494 -1.70315
ltoes -33.0123
514
root 12.4052 17.1119 8.13914 -155.788 2.38453 177.063
lowerback -30.5895 -3.08174 -7.68062
upperback -1.02459 -0.615632 -0.0225508
thorax 15.0137 -0.49911 3.96895
lowerneck -4.90714 -0.36827 0.254532
upperneck 6.5011 -0.577854 1.75185
head 2.93397 -0.192106 0.498859
rclavicle -2.73329e-015 3.12092e-014
rhumerus -39.989 -22.077 -74.1043
rradius 30.9955
rwrist -0.283458
rhand -6.56625 -51.9411
rfingers 7.12502
rthumb 19.2879 278.995
lclavicle -2.73329e-015 3.12092e-014
lhumerus -33.1725 7.56424 78.0125
lradius 17.4795
lwrist -8.30497
lhand -20.3085 -11.0738
lfingers 7.12502
lthumb 6.04197 18.82
rfemur -21.4114 7.18546 18.8401
rtibia 7.58048
rfoot -19.3982 -2.22754
rtoes -18.9979
lfemur -21.7206 -9.89751 -23.5626
ltibia 9.45527
lfoot -9.6377 -1.6043
ltoes -32.7881
515
root 12.4039 17.1115 8.14329 -155.751 2.4065 176.996
lowerback -30.686 -3.11287 -7.80117
upperback -0.968619 -0.608983 -0.00666075
thorax 15.1225 -0.512154 4.05278
lowerneck -4.99871 -0.381931 0.124958
upperneck 6.40666 -0.594415 1.82093
head 2.92044 -0.203124 0.542695
rclavicle 5.96354e-016 -1.0138e-014
rhumerus -39.8976 -22.1458 -74.0173
rradius 30.9291
rwrist 0.102601
rhand -6.09768 -52.2562
rfingers 7.12502
rthumb 19.7385 278.726
lclavicle 5.96354e-016 -1.0138e-014
lhumerus -32.9508 7.5358 78.1555
lradius 17.5336
lwrist -8.12847
lhand -20.5288 -11.573
lfingers 7.12502
lthumb 5.82932 18.3268
rfemur -21.4932 7.21258 18.7351
rtibia 7.61572
rfoot -19.3753 -2.25492
rtoes -18.7039
lfemur -21.7676 -9.77341 -23.6733
ltibia 9.42764
lfoot -9.49748 -1.64296
ltoes -32.9809
516
root 12.4043 17.112 8.14698 -155.704 2.37578 176.963
lowerback -30.7041 -3.14051 -7.84883
upperback -0.971189 -0.62395 -0.00820844
thorax 15.1295 -0.521046 4.07043
lowerneck -5.08924 -0.382135 0.128252
upperneck 6.45565 -0.592133 1.74392
head 2.95372 -0.204426 0.517528
rclavicle -3.00662e-015 -2.34566e-014
rhumerus -39.9115 -22.1859 -73.9721
rradius 30.9005
rwrist 0.249418
rhand -5.82382 -52.473
rfingers 7.12502
rthumb 20.0017 278.536
lclavicle -3.00662e-015 -2.34566e-014
lhumerus -32.8387 7.36024 78.3176
lradius 17.7553
lwrist -7.78646
lhand -20.6578 -11.362
lfingers 7.12502
lthumb 5.70478 18.5412
rfemur -21.5632 7.26691 18.6857
rtibia 7.62549
rfoot -19.3163 -2.35858
rtoes -18.8468
lfemur -21.7927 -9.60917 -23.7269
ltibia 9.34227
lfoot -9.41628 -1.8296
ltoes -33.1567
